{"title":"On_the_Line_2002_Dvdrip_Xvid-OlFa","uid":11683159,"size":1294509125,"categoryP":"video","categoryS":"movies","magnet":"?xt=urn:btih:0d5d78cf8de204c5e1d7b61f7d0e54b1ea36fab3&amp;dn=On_the_Line_2002_Dvdrip_Xvid-OlFa&amp;tr=udp%3A%2F%2Ftracker.openbittorrent.com%3A80&amp;tr=udp%3A%2F%2Fopen.demonii.com%3A1337&amp;tr=udp%3A%2F%2Ftracker.coppersurfer.tk%3A6969&amp;tr=udp%3A%2F%2Fexodus.desync.com%3A6969","seeders":0,"leechers":0,"uploader":"TvTeam","files":29,"time":1423186631,"description":" &lt;a href=&quot;https://www.torrenting.com&quot; rel=&quot;nofollow&quot; target=&quot;_NEW&quot;&gt;https://www.torrenting.com&lt;/a&gt;\n\nSign up is OPEN - for the time being. Come and have fun.\n\n---------------------------------------------------------------------\n\n.On the Line 2002 Dvdrip Xvid-OlFa\n\nComedy | Family | Romance  -  26 October 2001 (USA) &lt;a href=&quot;\nhttp://www.imdb.com/title/tt0279286/&quot; rel=&quot;nofollow&quot; target=&quot;_NEW&quot;&gt;\nhttp://www.imdb.com/title/tt0279286/&lt;/a&gt;\nRatings: 4.1/10 from 3,513 users  \n\nA shy advertising employee meets his dream girl on the El train, \nbut doesn't remember to get her phone number, resulting in an \nall-out search for the mystery girl...\n\nDirector: Eric Bross\nWriters: Eric Aronson, Paul B. Stanton\nStars: Lance Bass, Joey Fatone, Emmanuelle Chriqui \n\nVideo: 720x400 Xvid\nAudio: English MP3\nSubs: English .srt file. German and English in .idx/.sub files\n\nFormat                                   : AVI\nFormat/Info                              : Audio Video Interleave\nFile size                                : 1.19 GiB\nDuration                                 : 1h 22mn\nOverall bit rate                         : 2 072 Kbps\nWriting application                      : VirtualDubMod 1.5.4.1 (build 2178/release)\nWriting library                          : VirtualDubMod build 2178/release\n\nVideo\nID                                       : 0\nFormat                                   : MPEG-4 Visual\nFormat profile                           : Simple@L3\nFormat settings, BVOP                    : No\nFormat settings, QPel                    : No\nFormat settings, GMC                     : No warppoints\nFormat settings, Matrix                  : Default (H.263)\nCodec ID                                 : XVID\nCodec ID/Hint                            : XviD\nDuration                                 : 1h 22mn\nBit rate                                 : 1 937 Kbps\nWidth                                    : 720 pixels\nHeight                                   : 400 pixels\nDisplay aspect ratio                     : 16:9\nFrame rate                               : 25.000 fps\nColor space                              : YUV\nChroma subsampling                       : 4:2:0\nBit depth                                : 8 bits\nScan type                                : Progressive\nCompression mode                         : Lossy\nBits/(Pixel*Frame)                       : 0.269\nStream size                              : 1.11 GiB (93%)\nWriting library                          : XviD 1.2.1 (UTC 2008-12-04)\n\nAudio\nID                                       : 1\nFormat                                   : MPEG Audio\nFormat version                           : Version 1\nFormat profile                           : Layer 3\nMode                                     : Joint stereo\nMode extension                           : MS Stereo\nCodec ID                                 : 55\nCodec ID/Hint                            : MP3\nDuration                                 : 1h 22mn\nBit rate mode                            : Constant\nBit rate                                 : 128 Kbps\nChannel(s)                               : 2 channels\nSampling rate                            : 48.0 KHz\nCompression mode                         : Lossy\nStream size                              : 75.3 MiB (6%)\nAlignment                                : Aligned on interleaves\nInterleave, duration                     : 80 ms (2.00 video frames)\nInterleave, preload duration             : 504 ms\nWriting library                          : LAME3.98r","torrent":{"xt":"urn:btih:0d5d78cf8de204c5e1d7b61f7d0e54b1ea36fab3","amp;dn":"On_the_Line_2002_Dvdrip_Xvid-OlFa","amp;tr":["udp%3A%2F%2Ftracker.openbittorrent.com%3A80","udp%3A%2F%2Fopen.demonii.com%3A1337","udp%3A%2F%2Ftracker.coppersurfer.tk%3A6969","udp%3A%2F%2Fexodus.desync.com%3A6969"],"infoHash":"0d5d78cf8de204c5e1d7b61f7d0e54b1ea36fab3","infoHashBuffer":{"type":"Buffer","data":[13,93,120,207,141,226,4,197,225,215,182,31,125,14,84,177,234,54,250,179]},"announce":[],"urlList":[]}}